<mxfile host="app.diagrams.net" modified="2021-12-24T09:01:23.241Z" agent="5.0 (Macintosh; Intel Mac OS X 10_15_7) AppleWebKit/537.36 (KHTML, like Gecko) Chrome/96.0.4664.110 Safari/537.36" etag="9QFGmU4_tfjSlxyWzEN5" version="15.9.4" type="github">
  <diagram id="GeGDtAg2Hl_ULEtHxolN" name="Page-1">
    <mxGraphModel dx="1186" dy="738" grid="1" gridSize="10" guides="1" tooltips="1" connect="1" arrows="1" fold="1" page="1" pageScale="1" pageWidth="583" pageHeight="413" math="0" shadow="0">
      <root>
        <mxCell id="0" />
        <mxCell id="1" parent="0" />
        <mxCell id="SYtReasQdfBTqIunLlh_-1" value="" style="rounded=0;whiteSpace=wrap;html=1;sketch=1;" vertex="1" parent="1">
          <mxGeometry x="22" y="70" width="540" height="40" as="geometry" />
        </mxCell>
        <mxCell id="SYtReasQdfBTqIunLlh_-2" value="" style="endArrow=none;dashed=1;html=1;rounded=0;sketch=1;" edge="1" parent="1">
          <mxGeometry width="50" height="50" relative="1" as="geometry">
            <mxPoint x="279" y="130" as="sourcePoint" />
            <mxPoint x="279" y="40" as="targetPoint" />
          </mxGeometry>
        </mxCell>
        <mxCell id="SYtReasQdfBTqIunLlh_-3" value="" style="endArrow=none;dashed=1;html=1;rounded=0;sketch=1;" edge="1" parent="1">
          <mxGeometry width="50" height="50" relative="1" as="geometry">
            <mxPoint x="90" y="130" as="sourcePoint" />
            <mxPoint x="90" y="40" as="targetPoint" />
          </mxGeometry>
        </mxCell>
        <mxCell id="SYtReasQdfBTqIunLlh_-4" value="" style="endArrow=none;dashed=1;html=1;rounded=0;sketch=1;" edge="1" parent="1">
          <mxGeometry width="50" height="50" relative="1" as="geometry">
            <mxPoint x="177" y="130" as="sourcePoint" />
            <mxPoint x="177" y="40" as="targetPoint" />
          </mxGeometry>
        </mxCell>
        <mxCell id="SYtReasQdfBTqIunLlh_-5" value="" style="endArrow=none;dashed=1;html=1;rounded=0;sketch=1;" edge="1" parent="1">
          <mxGeometry width="50" height="50" relative="1" as="geometry">
            <mxPoint x="490" y="130" as="sourcePoint" />
            <mxPoint x="490" y="40" as="targetPoint" />
          </mxGeometry>
        </mxCell>
        <mxCell id="SYtReasQdfBTqIunLlh_-6" value="" style="endArrow=none;dashed=1;html=1;rounded=0;sketch=1;" edge="1" parent="1">
          <mxGeometry width="50" height="50" relative="1" as="geometry">
            <mxPoint x="377" y="130" as="sourcePoint" />
            <mxPoint x="377" y="40" as="targetPoint" />
          </mxGeometry>
        </mxCell>
        <mxCell id="SYtReasQdfBTqIunLlh_-8" value="&lt;font style=&quot;font-size: 14px;&quot;&gt;包加载&lt;/font&gt;" style="text;html=1;align=center;verticalAlign=middle;resizable=0;points=[];autosize=1;strokeColor=none;fillColor=none;fontSize=14;" vertex="1" parent="1">
          <mxGeometry x="22" y="140" width="60" height="20" as="geometry" />
        </mxCell>
        <mxCell id="SYtReasQdfBTqIunLlh_-9" value="&lt;font style=&quot;font-size: 14px&quot;&gt;页面冷启动&lt;/font&gt;" style="text;html=1;align=center;verticalAlign=middle;resizable=0;points=[];autosize=1;strokeColor=none;fillColor=none;fontSize=14;" vertex="1" parent="1">
          <mxGeometry x="89" y="140" width="90" height="20" as="geometry" />
        </mxCell>
        <mxCell id="SYtReasQdfBTqIunLlh_-10" value="&lt;font style=&quot;font-size: 14px&quot;&gt;缓存加载&lt;br&gt;(部分页面)&lt;br&gt;&lt;/font&gt;" style="text;html=1;align=center;verticalAlign=middle;resizable=0;points=[];autosize=1;strokeColor=none;fillColor=none;fontSize=14;" vertex="1" parent="1">
          <mxGeometry x="192" y="140" width="80" height="40" as="geometry" />
        </mxCell>
        <mxCell id="SYtReasQdfBTqIunLlh_-11" value="&lt;font style=&quot;font-size: 14px&quot;&gt;服务请求&lt;br&gt;&lt;/font&gt;" style="text;html=1;align=center;verticalAlign=middle;resizable=0;points=[];autosize=1;strokeColor=none;fillColor=none;fontSize=14;" vertex="1" parent="1">
          <mxGeometry x="297" y="140" width="70" height="20" as="geometry" />
        </mxCell>
        <mxCell id="SYtReasQdfBTqIunLlh_-12" value="&lt;font style=&quot;font-size: 14px&quot;&gt;处理服务数据&lt;br&gt;（Redux事件分发）&lt;br&gt;&lt;/font&gt;" style="text;html=1;align=center;verticalAlign=middle;resizable=0;points=[];autosize=1;strokeColor=none;fillColor=none;fontSize=14;" vertex="1" parent="1">
          <mxGeometry x="363" y="138" width="140" height="40" as="geometry" />
        </mxCell>
        <mxCell id="SYtReasQdfBTqIunLlh_-13" value="&lt;font style=&quot;font-size: 14px&quot;&gt;挂载页面节点&lt;br&gt;&lt;/font&gt;" style="text;html=1;align=center;verticalAlign=middle;resizable=0;points=[];autosize=1;strokeColor=none;fillColor=none;fontSize=14;" vertex="1" parent="1">
          <mxGeometry x="490" y="140" width="100" height="20" as="geometry" />
        </mxCell>
      </root>
    </mxGraphModel>
  </diagram>
</mxfile>
